<mxfile host="app.diagrams.net" modified="2023-05-21T17:46:31.971Z" agent="Mozilla/5.0 (Windows NT 10.0; Win64; x64) AppleWebKit/537.36 (KHTML, like Gecko) Chrome/113.0.0.0 Safari/537.36" etag="Lb0KR2U43YrK_XKKpccH" version="21.3.2" type="device">
  <diagram name="Страница 1" id="tV5n0JBxyX4GD48PZgfG">
    <mxGraphModel dx="2074" dy="1148" grid="1" gridSize="10" guides="1" tooltips="1" connect="1" arrows="1" fold="1" page="1" pageScale="1" pageWidth="827" pageHeight="1169" math="0" shadow="0">
      <root>
        <mxCell id="0" />
        <mxCell id="1" parent="0" />
        <mxCell id="XLTny_ueh0Xq2lnlys8B-3" style="edgeStyle=orthogonalEdgeStyle;rounded=0;orthogonalLoop=1;jettySize=auto;html=1;entryX=0.5;entryY=0;entryDx=0;entryDy=0;" edge="1" parent="1" source="XLTny_ueh0Xq2lnlys8B-1" target="XLTny_ueh0Xq2lnlys8B-2">
          <mxGeometry relative="1" as="geometry" />
        </mxCell>
        <mxCell id="XLTny_ueh0Xq2lnlys8B-1" value="&lt;font style=&quot;font-size: 14px;&quot;&gt;Начало&lt;br&gt;main&lt;/font&gt;" style="ellipse;whiteSpace=wrap;html=1;" vertex="1" parent="1">
          <mxGeometry x="354" y="10" width="120" height="80" as="geometry" />
        </mxCell>
        <mxCell id="XLTny_ueh0Xq2lnlys8B-5" style="edgeStyle=orthogonalEdgeStyle;rounded=0;orthogonalLoop=1;jettySize=auto;html=1;entryX=0.5;entryY=0;entryDx=0;entryDy=0;" edge="1" parent="1" source="XLTny_ueh0Xq2lnlys8B-2" target="XLTny_ueh0Xq2lnlys8B-4">
          <mxGeometry relative="1" as="geometry" />
        </mxCell>
        <mxCell id="XLTny_ueh0Xq2lnlys8B-2" value="&lt;div style=&quot;font-size: 14px; line-height: 19px;&quot;&gt;&lt;font style=&quot;background-color: rgb(255, 255, 255);&quot; color=&quot;#000000&quot;&gt;Scanner scn = new Scanner(System.in)&lt;/font&gt;&lt;/div&gt;" style="rounded=0;whiteSpace=wrap;html=1;" vertex="1" parent="1">
          <mxGeometry x="354" y="120" width="120" height="60" as="geometry" />
        </mxCell>
        <mxCell id="XLTny_ueh0Xq2lnlys8B-7" style="edgeStyle=orthogonalEdgeStyle;rounded=0;orthogonalLoop=1;jettySize=auto;html=1;entryX=0.5;entryY=0;entryDx=0;entryDy=0;" edge="1" parent="1" source="XLTny_ueh0Xq2lnlys8B-4" target="XLTny_ueh0Xq2lnlys8B-6">
          <mxGeometry relative="1" as="geometry" />
        </mxCell>
        <mxCell id="XLTny_ueh0Xq2lnlys8B-4" value="&lt;div style=&quot;font-size: 14px; line-height: 19px;&quot;&gt;&lt;span style=&quot;background-color: rgb(255, 255, 255);&quot;&gt;Array mass = new Array(scn);&lt;/span&gt;&lt;/div&gt;" style="rounded=0;whiteSpace=wrap;html=1;" vertex="1" parent="1">
          <mxGeometry x="354" y="210" width="120" height="60" as="geometry" />
        </mxCell>
        <mxCell id="XLTny_ueh0Xq2lnlys8B-10" style="edgeStyle=orthogonalEdgeStyle;rounded=0;orthogonalLoop=1;jettySize=auto;html=1;entryX=0.5;entryY=0;entryDx=0;entryDy=0;" edge="1" parent="1" source="XLTny_ueh0Xq2lnlys8B-6" target="XLTny_ueh0Xq2lnlys8B-8">
          <mxGeometry relative="1" as="geometry" />
        </mxCell>
        <mxCell id="XLTny_ueh0Xq2lnlys8B-6" value="&lt;div style=&quot;font-size: 14px; line-height: 19px;&quot;&gt;&lt;span style=&quot;background-color: rgb(255, 255, 255);&quot;&gt;mass.absMaxElement()&lt;/span&gt;&lt;/div&gt;" style="shape=parallelogram;perimeter=parallelogramPerimeter;whiteSpace=wrap;html=1;fixedSize=1;" vertex="1" parent="1">
          <mxGeometry x="354" y="300" width="120" height="60" as="geometry" />
        </mxCell>
        <mxCell id="XLTny_ueh0Xq2lnlys8B-12" style="edgeStyle=orthogonalEdgeStyle;rounded=0;orthogonalLoop=1;jettySize=auto;html=1;entryX=0.5;entryY=0;entryDx=0;entryDy=0;" edge="1" parent="1" source="XLTny_ueh0Xq2lnlys8B-8" target="XLTny_ueh0Xq2lnlys8B-11">
          <mxGeometry relative="1" as="geometry" />
        </mxCell>
        <mxCell id="XLTny_ueh0Xq2lnlys8B-8" value="&lt;div style=&quot;font-size: 14px; line-height: 19px;&quot;&gt;&lt;span style=&quot;background-color: rgb(255, 255, 255);&quot;&gt;mass.sumBetweenPositive()&lt;/span&gt;&lt;/div&gt;" style="shape=parallelogram;perimeter=parallelogramPerimeter;whiteSpace=wrap;html=1;fixedSize=1;" vertex="1" parent="1">
          <mxGeometry x="354" y="390" width="120" height="60" as="geometry" />
        </mxCell>
        <mxCell id="XLTny_ueh0Xq2lnlys8B-14" style="edgeStyle=orthogonalEdgeStyle;rounded=0;orthogonalLoop=1;jettySize=auto;html=1;entryX=0.5;entryY=0;entryDx=0;entryDy=0;" edge="1" parent="1" source="XLTny_ueh0Xq2lnlys8B-11" target="XLTny_ueh0Xq2lnlys8B-13">
          <mxGeometry relative="1" as="geometry" />
        </mxCell>
        <mxCell id="XLTny_ueh0Xq2lnlys8B-11" value="&lt;div style=&quot;font-size: 14px; line-height: 19px;&quot;&gt;&lt;span style=&quot;background-color: rgb(255, 255, 255);&quot;&gt;int i = mass.strangeSort()&lt;/span&gt;&lt;/div&gt;" style="rounded=0;whiteSpace=wrap;html=1;" vertex="1" parent="1">
          <mxGeometry x="354" y="480" width="120" height="60" as="geometry" />
        </mxCell>
        <mxCell id="XLTny_ueh0Xq2lnlys8B-16" style="edgeStyle=orthogonalEdgeStyle;rounded=0;orthogonalLoop=1;jettySize=auto;html=1;entryX=0.5;entryY=0;entryDx=0;entryDy=0;" edge="1" parent="1" source="XLTny_ueh0Xq2lnlys8B-13" target="XLTny_ueh0Xq2lnlys8B-15">
          <mxGeometry relative="1" as="geometry" />
        </mxCell>
        <mxCell id="XLTny_ueh0Xq2lnlys8B-13" value="&lt;div style=&quot;font-size: 14px; line-height: 19px;&quot;&gt;&lt;span style=&quot;background-color: rgb(255, 255, 255);&quot;&gt;mass.normalSort(0, i)&lt;/span&gt;&lt;/div&gt;" style="rounded=0;whiteSpace=wrap;html=1;" vertex="1" parent="1">
          <mxGeometry x="354" y="570" width="120" height="60" as="geometry" />
        </mxCell>
        <mxCell id="XLTny_ueh0Xq2lnlys8B-18" style="edgeStyle=orthogonalEdgeStyle;rounded=0;orthogonalLoop=1;jettySize=auto;html=1;entryX=0.5;entryY=0;entryDx=0;entryDy=0;" edge="1" parent="1" source="XLTny_ueh0Xq2lnlys8B-15" target="XLTny_ueh0Xq2lnlys8B-17">
          <mxGeometry relative="1" as="geometry" />
        </mxCell>
        <mxCell id="XLTny_ueh0Xq2lnlys8B-15" value="&lt;font style=&quot;font-size: 14px;&quot;&gt;mass.normalSort(i)&lt;/font&gt;" style="rounded=0;whiteSpace=wrap;html=1;" vertex="1" parent="1">
          <mxGeometry x="354" y="660" width="120" height="60" as="geometry" />
        </mxCell>
        <mxCell id="XLTny_ueh0Xq2lnlys8B-20" style="edgeStyle=orthogonalEdgeStyle;rounded=0;orthogonalLoop=1;jettySize=auto;html=1;entryX=0.5;entryY=0;entryDx=0;entryDy=0;" edge="1" parent="1" source="XLTny_ueh0Xq2lnlys8B-17" target="XLTny_ueh0Xq2lnlys8B-19">
          <mxGeometry relative="1" as="geometry" />
        </mxCell>
        <mxCell id="XLTny_ueh0Xq2lnlys8B-17" value="&lt;div style=&quot;font-size: 14px; line-height: 19px;&quot;&gt;&lt;span style=&quot;background-color: rgb(255, 255, 255);&quot;&gt;mass.printArray()&lt;/span&gt;&lt;/div&gt;" style="rounded=0;whiteSpace=wrap;html=1;" vertex="1" parent="1">
          <mxGeometry x="354" y="750" width="120" height="60" as="geometry" />
        </mxCell>
        <mxCell id="XLTny_ueh0Xq2lnlys8B-19" value="Конец" style="ellipse;whiteSpace=wrap;html=1;" vertex="1" parent="1">
          <mxGeometry x="354" y="840" width="120" height="80" as="geometry" />
        </mxCell>
      </root>
    </mxGraphModel>
  </diagram>
</mxfile>
